<?xml version="1.0" standalone="no"?>
<!DOCTYPE svg PUBLIC "-//W3C//DTD SVG 20010904//EN"
 "http://www.w3.org/TR/2001/REC-SVG-20010904/DTD/svg10.dtd">
<svg version="1.0" xmlns="http://www.w3.org/2000/svg"
 width="100.000000pt" height="116.000000pt" viewBox="0 0 100.000000 116.000000"
 preserveAspectRatio="xMidYMid meet" style="enable-background:new 255 255 255 463.5;" xml:space="preserve" fill="#ffffff">

<g transform="translate(0.000000,116.000000) scale(0.100000,-0.100000)"
fill="#FFFFFF" stroke="none">
<path d="M491 1069 c-25 -5 -61 -21 -80 -37 -57 -45 -71 -83 -71 -189 l0 -93
-55 0 -55 0 0 -90 0 -90 55 0 55 0 0 -245 0 -245 115 0 115 0 0 245 0 245 74
0 c86 0 81 -6 91 108 l7 72 -86 0 -86 0 0 51 c0 81 8 89 95 89 l75 0 0 95 0
95 -102 -1 c-57 -1 -123 -5 -147 -10z"/>
</g>
</svg>
