<?xml version="1.0" standalone="no"?>
<!DOCTYPE svg PUBLIC "-//W3C//DTD SVG 20010904//EN"
 "http://www.w3.org/TR/2001/REC-SVG-20010904/DTD/svg10.dtd">
<svg version="1.0" xmlns="http://www.w3.org/2000/svg"
 width="100.000000pt" height="100.000000pt" viewBox="0 0 100.000000 100.000000"
 preserveAspectRatio="xMidYMid meet" fill="#ffffff">

<g transform="translate(0.000000,100.000000) scale(0.100000,-0.100000)"
fill="#FFFFFF" stroke="none">
<path d="M186 984 c-70 -22 -149 -103 -170 -174 -23 -76 -23 -542 -1 -617 21
-70 63 -123 126 -158 l54 -30 305 0 305 0 49 25 c27 14 64 43 83 65 59 69 65
108 61 427 l-3 283 -31 55 c-37 66 -101 113 -174 129 -81 17 -544 13 -604 -5z
m576 -95 c65 -14 111 -57 128 -117 16 -60 16 -496 0 -550 -15 -48 -61 -95
-109 -111 -22 -7 -125 -11 -285 -11 -241 0 -254 1 -296 23 -52 26 -78 59 -90
113 -13 55 -12 463 1 524 13 62 59 113 116 128 53 14 469 15 535 1z"/>
<path d="M720 810 c-26 -26 -25 -60 0 -88 42 -45 110 -17 110 45 0 57 -69 84
-110 43z"/>
<path d="M400 740 c-259 -121 -184 -501 99 -500 155 1 261 106 261 260 -1 146
-101 250 -250 257 -50 3 -75 -1 -110 -17z m198 -116 c89 -69 81 -195 -17 -261
-91 -61 -222 4 -237 118 -17 136 144 226 254 143z"/>
</g>
</svg>
